<svg xmlns="http://www.w3.org/2000/svg" width="84.75" height="25.52"><path d="M28.92 12.89l.85-1.28a9.17 9.17 0 004.9 1.4 4.28 4.28 0 002.24-.43 1.21 1.21 0 00.64-1 1.28 1.28 0 00-.44-1 4.11 4.11 0 00-1.59-.7L32.23 9a6 6 0 01-2.22-1.21 2.58 2.58 0 01-.86-2c0-1.49 1-2.47 2.95-2.94a11.92 11.92 0 012.64-.25 9.6 9.6 0 013.04.4 8.58 8.58 0 012.33 1.16l-.85 1.28a11.4 11.4 0 00-2-1 7 7 0 00-2.48-.42 3.73 3.73 0 00-1.92.36 1.06 1.06 0 00-.55.88c0 .72.64 1.26 1.92 1.63l3.3 1c2.14.62 3.2 1.69 3.2 3.2 0 2.28-2 3.41-6.08 3.41a11 11 0 01-4.68-1 6.28 6.28 0 01-1.05-.61zm12.35-4.36a5.64 5.64 0 011.81-4.43 6.84 6.84 0 014.7-1.54 7.84 7.84 0 013.83.94 5.06 5.06 0 011 .66l-.85 1.28a6.21 6.21 0 00-3.75-1.39 3.13 3.13 0 00-3.24 2.43 6.84 6.84 0 00-.27 2q0 3.42 2.21 4.23a4.61 4.61 0 001.52.25 6.15 6.15 0 003.73-1.4l.85 1.28a6.89 6.89 0 01-3.43 1.49 12 12 0 01-1.78.11 7.85 7.85 0 01-2.34-.39 6 6 0 01-2.13-1.16 5.48 5.48 0 01-1.86-4.36zm12.46 5.54v-6.5a4.26 4.26 0 011.37-3.38 5.86 5.86 0 014-1.2h3.19v1.49H59.7a3 3 0 00-2.21.78 3.13 3.13 0 00-.77 2.31v6.5zm8.62-5.54a5.61 5.61 0 011.81-4.43 6.82 6.82 0 014.68-1.54 8.21 8.21 0 012.64.4 5.76 5.76 0 012 1.14 5.61 5.61 0 011.81 4.43 5.55 5.55 0 01-1.81 4.41 6.75 6.75 0 01-4.68 1.55 6.79 6.79 0 01-4.69-1.55 5.55 5.55 0 01-1.76-4.41zm3.19 0a5.41 5.41 0 001 3.52 2.84 2.84 0 002.32 1.06 3 3 0 003-2.48 7.14 7.14 0 00.27-2.1 5.51 5.51 0 00-1-3.54 2.84 2.84 0 00-2.32-1.05 3 3 0 00-3 2.48 7.21 7.21 0 00-.27 2.11zm11.18 5.54V0h3v14.07zm4.9 0V0h3v14.07zm-51.79 6.19a1.41 1.41 0 011.29-.79 1.08 1.08 0 011.11.76 1.38 1.38 0 011.29-.76 1.14 1.14 0 011.24 1.22v2.77h-.47v-2.64a.81.81 0 00-.9-.92 1 1 0 00-1.08 1.18v2.38h-.47v-2.6c0-.59-.22-1-.85-1-.79 0-1.13.6-1.13 1.36v2.2h-.48v-3.84h.45zm7.79 3.33a1.8 1.8 0 01-1.79-2 1.88 1.88 0 011.78-2.1 1.8 1.8 0 011.71 2v.13h-3c0 .82.38 1.57 1.31 1.57a1.15 1.15 0 001.19-1h.46a1.6 1.6 0 01-1.66 1.4zm0-3.72c-.84 0-1.18.65-1.27 1.38h2.52c-.08-.86-.55-1.38-1.28-1.38zm6.14 3.59h-.43v-.76a1.4 1.4 0 01-1.4.87c-1.07 0-1.75-.79-1.75-2.05s.68-2.05 1.74-2.05a1.41 1.41 0 011.38.83v-2.22h.46zm-3.1-1.95c0 1 .51 1.68 1.32 1.68s1.33-.64 1.33-1.67c0-.84-.39-1.66-1.34-1.66s-1.31.65-1.31 1.65zm4.89-2.67h-.48v-.78h.48zm0 4.62h-.48v-3.88h.48zm4.69-.02a1.15 1.15 0 01-.37.06c-.46 0-.51-.36-.51-.71a1.62 1.62 0 01-1.46.78c-.8 0-1.27-.41-1.27-1.09s.48-1.1 1.44-1.2a2.85 2.85 0 001.13-.21c.1-.06.14-.17.14-.37 0-.64-.39-.83-1-.83a.935.935 0 00-1.06.91h-.45c0-.83.6-1.31 1.56-1.31s1.43.39 1.43 1.12v2.12c0 .23 0 .39.25.39a.62.62 0 00.18 0zm-2-1.82c-.49.07-1.16.18-1.16.81 0 .46.35.74.9.74A1.22 1.22 0 0049.34 22v-.63a2.47 2.47 0 01-1.06.25zm7.7-.91c0-.59-.42-.84-1-.84s-.9.24-.9.64.38.56 1.11.73 1.44.34 1.44 1.15-.62 1.19-1.54 1.19a1.414 1.414 0 01-1.59-1.39h.46c0 .65.43 1 1.15 1s1.05-.3 1.05-.76-.65-.66-1.06-.76c-.64-.15-1.5-.25-1.5-1.1 0-.68.55-1.1 1.43-1.1s1.47.41 1.47 1.24zm5.17.82a1.8 1.8 0 01-1.82 2 1.83 1.83 0 01-1.86-2.05 1.85 1.85 0 113.68 0zm-3.19 0c0 1 .52 1.66 1.37 1.66s1.35-.64 1.35-1.65-.53-1.66-1.36-1.66-1.36.64-1.36 1.64zm4.77 1.93h-.46v-5.38h.46zm4.43 0h-.44v-.72a1.4 1.4 0 01-1.36.83 1.25 1.25 0 01-1.31-1.41v-2.58h.48V22c0 .76.23 1.2 1 1.2a1.279 1.279 0 001.21-1.44v-2.18h.47zM70.01 20h-.8v2.47c0 .39 0 .65.49.65h.31v.41a2.93 2.93 0 01-.41 0c-.34 0-.72-.07-.81-.44a3.36 3.36 0 010-.86V20h-.78v-.38h.68v-1.23h.47v1.19h.85zm1.51-1.16h-.51v-.78h.47zm0 4.62h-.51v-3.88h.47zm4.78-1.93a1.81 1.81 0 01-1.83 2 1.83 1.83 0 01-1.85-2.05 1.85 1.85 0 113.68 0zm-3.2 0c0 1 .52 1.66 1.38 1.66s1.34-.64 1.34-1.65-.53-1.66-1.36-1.66-1.36.64-1.36 1.64zm4.74-1.22a1.43 1.43 0 011.37-.84 1.23 1.23 0 011.35 1.35v2.64h-.48V21c0-.8-.4-1.08-1-1.08a1.3 1.3 0 00-1.22 1.47v2.1h-.48v-3.91h.45zm6.32.4c-.05-.59-.43-.84-1.05-.84s-.91.24-.91.64.38.56 1.11.73 1.44.34 1.44 1.15-.62 1.19-1.54 1.19a1.414 1.414 0 01-1.59-1.39h.46c0 .65.43 1 1.15 1s1.06-.3 1.06-.76-.66-.66-1.07-.76c-.63-.15-1.49-.25-1.49-1.1 0-.68.54-1.1 1.42-1.1s1.47.41 1.47 1.24z"/><path d="M12.76 0a12.76 12.76 0 1012.76 12.75A12.76 12.76 0 0012.76 0zm6.35 23a4 4 0 01-1 .46 16 16 0 00-2.34-.82l-7.76-2.29a14 14 0 01-5.28-2.74 6.08 6.08 0 01-2-4.82 6.31 6.31 0 01.66-2.92 5.7 5.7 0 001.38 1.79 14 14 0 005.24 2.75l7.8 2.29a9.88 9.88 0 013.75 1.67 3 3 0 011.05 2.28 2.83 2.83 0 01-1.5 2.35zm-1.84-12L9.44 8.7Q4.9 7.4 4.9 4.85a2.48 2.48 0 011.31-2.09 4.6 4.6 0 011.57-.59 14.46 14.46 0 001.66.58L17.27 5q7.56 2.2 7.56 7.58a6.84 6.84 0 01-.67 3.05C23.12 13.58 20.82 12 17.27 11z" fill="#e52420"/></svg>