<svg xmlns="http://www.w3.org/2000/svg" width="288.278" height="48.955"><defs><style>.b{fill:#fff}</style></defs><path d="M273.278 0a15 15 0 11-15 15 15 15 0 0115-15z" fill="#f66e4d"/><path class="b" d="M.598 43.274l4.635-16.969L0 21.222h20.632l5.831 5.606H12.111L7.778 42.975h6.877l1.271-5.158h-3.364l1.716-5.681 10.391.523-4.859 16.146H6.056z"/><path class="b" d="M30.5 48.771h-7.349l6.226-22.241-5.307-5.383h20.632l5.457 5.831-1.515 5.581-4.308 2.516 2.839 2.879-2.838 10.815h-7.2l2.89-11.022H33.29L30.5 48.771zm5.829-21.868l-1.644 5.383h6.653l1.645-5.383h-6.654z"/><path class="b" d="M54.269 48.881h-7.1l6.279-22.276-4.859-5.383h20.18l5.382 5.906-5.752 21.751h-7.475l2.915-11.057h-6.8l-2.77 11.058zm6.392-21.978l-1.906 5.607h6.728l1.944-5.607h-6.765z"/><path class="b" d="M72.36 21.222h20.482l5.457 5.905-6.13 21.678h-7.176l6.13-21.678h-6.728L78.34 48.805h-7.176l6.354-22.575z"/><path class="b" d="M109.288 48.805H95.309l6.055-22.649-4.784-4.934h20.407l5.457 5.831-4.41 16.519-8.746 5.233zm-.9-21.9l-4.41 16.371h6.731l4.41-16.371h-6.728zm27.287 21.975h-7.251l6.242-22.621-4.822-5.037c.345.006 2.211.01 5.873.01 6.021 0 14.6-.01 14.684-.01l5.158 5.531-1.495 5.682-8.671 5.457h-6.952l-2.766 10.987zm6.025-22.09l-1.681 5.618h7.078l1.415-5.618h-6.811z"/><path class="b" d="M153.778 21.222h20.7l5.087 5.7h-14.022l-1.283 5.352h6.989l-1.371 5.617h-7.254l-1.194 5.485h13.845l-1.637 5.573h-21.1l6.281-22.735z"/><path class="b" d="M183.809 48.73h-7.21l6.1-22.6-4.906-4.908h20.3l5.574 5.7-1.328 5.574-4.24 2.526 2.566 3.052-2.919 10.66h-7.347l2.919-11.014h-6.679l-2.83 11.014zm5.972-21.808l-1.549 5.486h6.944l1.416-5.486h-6.811z"/><path class="b" d="M201.9 21.222h20.413l5.635 5.825h-14.145l-1.265 5.405h6.84l-1.668 5.693h-6.843l-3.048 10.81h-7.241l6.268-22.771z"/><path class="b" d="M225.968 21.222h20.7l5.248 5.831h-7.191l-4.179 16.423h6.705l-1.652 5.442h-20.7l1.749-5.442h6.8l4.179-16.423h-6.119z"/><path class="b" d="M262.701 48.822h-13.993l6.413-22.642-5.149-4.958h20.5l5.539 5.927-4.762 16.715-8.548 4.958zm-.34-21.9l-5.1 16.65h7l4.66-16.65h-6.56z"/></svg>