<svg xmlns="http://www.w3.org/2000/svg" width="288.278" height="48.955" viewBox="0 0 288.278 48.955"><defs><style>.a{fill:#f66e4d;}.b{fill:#fff;}</style></defs><g transform="translate(-50.722 -40)"><path class="a" d="M15,0A15,15,0,1,1,0,15,15,15,0,0,1,15,0Z" transform="translate(309 40)"/><path class="b" d="M-307.68,83.274l4.635-16.969-5.233-5.083h20.632l5.831,5.606h-14.352L-300.5,82.975h6.877l1.271-5.158h-3.364L-294,72.136l10.391.523-4.859,16.146h-13.754Z" transform="translate(359)"/><path class="b" d="M366.349,27.624H359l6.226-22.241L359.919,0h20.632l5.457,5.831-1.515,5.581-4.308,2.516,2.839,2.879-2.838,10.815h-7.2L375.876,16.6h-6.737l-2.79,11.024Zm5.829-21.868h0l-1.644,5.383h6.653l1.645-5.383h-6.654Z" transform="translate(-285.127 61.147)"/><path class="b" d="M366.1,27.659H359l6.279-22.276L360.42,0H380.6l5.382,5.906L380.23,27.657h-7.475L375.67,16.6h-6.8L366.1,27.658Zm6.392-21.978-1.906,5.607h6.728l1.944-5.607h-6.765Z" transform="translate(-261.109 61.222)"/><path class="b" d="M-235.918,61.222h20.482l5.457,5.905-6.13,21.678h-7.176l6.13-21.678h-6.728l-6.055,21.678h-7.176l6.354-22.575Z" transform="translate(359)"/><path class="b" d="M372.979,27.583H359l6.055-22.649L360.271,0h20.407l5.457,5.831-4.41,16.519-8.746,5.233Zm-.9-21.9h0l-4.41,16.371H374.4l4.41-16.371h-6.728Z" transform="translate(-212.969 61.222)"/><path class="b" d="M366.251,27.658H359l6.242-22.621L360.42,0c.345.006,2.211.01,5.873.01,6.021,0,14.6-.01,14.684-.01l5.158,5.531-1.495,5.682-8.671,5.457h-6.952l-2.766,10.987Zm6.025-22.09h0l-1.681,5.618h7.078l1.415-5.618h-6.811Z" transform="translate(-179.854 61.222)"/><path class="b" d="M-154.5,61.222h20.7l5.087,5.7h-14.022l-1.283,5.352h6.989l-1.371,5.617h-7.254l-1.194,5.485h13.845l-1.637,5.573h-21.1l6.281-22.735Z" transform="translate(359)"/><path class="b" d="M366.21,27.508H359l6.1-22.6L360.194,0h20.3l5.574,5.7-1.328,5.574L380.5,13.8l2.566,3.052-2.919,10.66H372.8l2.919-11.014H369.04l-2.83,11.014ZM372.182,5.7l-1.549,5.486h6.944L378.993,5.7h-6.811Z" transform="translate(-131.679 61.222)"/><path class="b" d="M-106.378,61.222h20.413l5.635,5.825H-94.475l-1.265,5.405H-88.9l-1.668,5.693h-6.843l-3.048,10.81H-107.7l6.268-22.771Z" transform="translate(359)"/><path class="b" d="M-82.31,61.222h20.7l5.248,5.831h-7.191l-4.179,16.423h6.705l-1.652,5.442h-20.7l1.749-5.442h6.8l4.179-16.423H-76.77Z" transform="translate(359)"/><path class="b" d="M372.993,27.6H359l6.413-22.642L360.264,0h20.5l5.539,5.927-4.762,16.715L372.993,27.6Zm-.34-21.9h0l-5.1,16.65h7L379.213,5.7h-6.56Z" transform="translate(-59.57 61.222)"/></g></svg>