<svg xmlns="http://www.w3.org/2000/svg" width="25.199" height="25.199" viewBox="0 0 25.199 25.199"><defs><style>.a{stroke:#000;stroke-width:0.2px;}</style></defs><g transform="translate(0.101 0.1)"><path class="a" d="M18.231,0H6.766A6.775,6.775,0,0,0,0,6.767V18.232A6.775,6.775,0,0,0,6.766,25H18.231A6.775,6.775,0,0,0,25,18.232V6.767A6.775,6.775,0,0,0,18.231,0Zm5.3,18.232a5.307,5.307,0,0,1-5.3,5.3H6.766a5.307,5.307,0,0,1-5.3-5.3V6.767a5.307,5.307,0,0,1,5.3-5.3H18.231a5.307,5.307,0,0,1,5.3,5.3Zm0,0"/><path class="a" d="M122.839,116a6.835,6.835,0,1,0,6.835,6.835A6.843,6.843,0,0,0,122.839,116Zm0,12.205a5.37,5.37,0,1,1,5.37-5.37A5.376,5.376,0,0,1,122.839,128.209Zm0,0" transform="translate(-110.341 -110.34)"/><path class="a" d="M360,66.285a2.02,2.02,0,1,0,2.02,2.02A2.022,2.022,0,0,0,360,66.285Zm0,2.574a.554.554,0,1,1,.554-.554A.555.555,0,0,1,360,68.859Zm0,0" transform="translate(-340.499 -63.049)"/></g></svg>