<svg xmlns="http://www.w3.org/2000/svg" width="28.057" height="23.737" viewBox="0 0 28.057 23.737"><path d="M27.623.65A1.821,1.821,0,0,0,26.178,0a2.835,2.835,0,0,0-1.009.2L1.42,9.267c-1.26.481-1.43,1.2-1.419,1.59s.221,1.1,1.507,1.508l.023.007,4.926,1.41L9.121,21.4a2.3,2.3,0,0,0,2.128,1.684,2.518,2.518,0,0,0,1.7-.725L16,19.552l4.42,3.559h0l.042.034.012.009a2.551,2.551,0,0,0,1.551.582h0a2.177,2.177,0,0,0,2.076-1.93L27.992,2.593A2.3,2.3,0,0,0,27.623.65ZM8.1,13.513l9.5-4.855-5.918,6.288a.821.821,0,0,0-.2.366L10.35,19.935Zm3.734,7.635c-.039.036-.079.068-.119.1l1.059-4.288L14.7,18.51ZM26.381,2.267,22.49,21.482c-.037.184-.157.612-.465.612a.958.958,0,0,1-.538-.233l-5.008-4.032,0,0-2.98-2.4,8.558-9.094a.822.822,0,0,0-.972-1.3L7.006,12.228,2.013,10.8,25.755,1.737a1.206,1.206,0,0,1,.423-.093c.05,0,.14.006.173.047a.784.784,0,0,1,.03.576Zm0,0" transform="translate(0)"/></svg>