<svg xmlns="http://www.w3.org/2000/svg" width="33.24" height="33.24"><path d="M16.62 8.111a8.509 8.509 0 108.509 8.509 8.518 8.518 0 00-8.509-8.509zM14.892 6.37h3.455a.723.723 0 00.7-1.027l-1.9-4.894c-.151-.39-.4-.448-.53-.448s-.378.058-.53.448l-1.9 4.894a.723.723 0 00.7 1.027zm3.455 20.5h-3.455a.723.723 0 00-.7 1.027l1.9 4.894c.151.39.4.448.53.448s.378-.058.529-.448l1.9-4.894a.723.723 0 00-.7-1.027zM6.927 10.364a.736.736 0 00.671.475.787.787 0 00.553-.246l2.443-2.443a.723.723 0 00-.229-1.223l-4.8-2.117a.852.852 0 00-.339-.08.478.478 0 00-.411.211.622.622 0 000 .619zm19.386 12.512a.736.736 0 00-.671-.475.788.788 0 00-.553.246l-2.443 2.443a.723.723 0 00.229 1.223l4.8 2.117a.852.852 0 00.339.081.478.478 0 00.411-.211.622.622 0 000-.619zM25.09 10.593a.788.788 0 00.553.246.736.736 0 00.671-.475l2.117-4.8a.622.622 0 000-.619.478.478 0 00-.411-.211.851.851 0 00-.339.081l-4.8 2.117a.723.723 0 00-.229 1.223zM8.146 22.647a.788.788 0 00-.553-.246.736.736 0 00-.671.475l-2.117 4.8a.622.622 0 000 .619.478.478 0 00.411.211.851.851 0 00.34-.081l4.8-2.117a.723.723 0 00.229-1.223zm24.645-6.556l-4.894-1.9a.869.869 0 00-.315-.062.715.715 0 00-.712.765v3.455a.715.715 0 00.712.765.87.87 0 00.315-.062l4.894-1.9c.39-.152.448-.4.448-.53s-.058-.38-.448-.531zm-27.133 3.02a.715.715 0 00.712-.765v-3.455a.715.715 0 00-.712-.765.87.87 0 00-.315.062l-4.894 1.9c-.39.151-.448.4-.448.53s.058.378.448.53l4.894 1.9a.87.87 0 00.315.063z" fill="#f66e4d"/></svg>