<svg xmlns="http://www.w3.org/2000/svg" width="33.24" height="33.24" viewBox="0 0 33.24 33.24"><defs><style>.a{fill:#f66e4d;}</style></defs><path class="a" d="M157.848,149.341a8.509,8.509,0,1,0,8.509,8.509A8.518,8.518,0,0,0,157.848,149.341Z" transform="translate(-141.228 -141.23)"/><path class="a" d="M260.885,6.371h3.455a.723.723,0,0,0,.7-1.027l-1.9-4.894c-.151-.39-.4-.448-.53-.448s-.378.058-.53.448l-1.9,4.894a.723.723,0,0,0,.7,1.027Z" transform="translate(-245.993 -0.001)"/><path class="a" d="M264.341,494.723h-3.455a.723.723,0,0,0-.7,1.027l1.9,4.894c.151.39.4.448.53.448s.378-.058.529-.448l1.9-4.894a.723.723,0,0,0-.7-1.027Z" transform="translate(-245.994 -467.853)"/><path class="a" d="M89.283,92.721a.736.736,0,0,0,.671.475.787.787,0,0,0,.553-.246l2.443-2.443a.723.723,0,0,0-.229-1.223l-4.8-2.117a.852.852,0,0,0-.339-.08.478.478,0,0,0-.411.211.622.622,0,0,0,0,.619Z" transform="translate(-82.356 -82.357)"/><path class="a" d="M416.344,412.907a.736.736,0,0,0-.671-.475.788.788,0,0,0-.553.246l-2.443,2.443a.723.723,0,0,0,.229,1.223l4.8,2.117a.852.852,0,0,0,.339.081.478.478,0,0,0,.411-.211.622.622,0,0,0,0-.619Z" transform="translate(-390.031 -390.031)"/><path class="a" d="M415.124,92.951a.788.788,0,0,0,.553.246.736.736,0,0,0,.671-.475l2.117-4.8a.622.622,0,0,0,0-.619.478.478,0,0,0-.411-.211.851.851,0,0,0-.339.081l-4.8,2.117a.723.723,0,0,0-.229,1.223Z" transform="translate(-390.034 -82.358)"/><path class="a" d="M90.5,412.678a.788.788,0,0,0-.553-.246.736.736,0,0,0-.671.475l-2.117,4.8a.622.622,0,0,0,0,.619.478.478,0,0,0,.411.211.851.851,0,0,0,.34-.081l4.8-2.117a.723.723,0,0,0,.229-1.223Z" transform="translate(-82.354 -390.031)"/><path class="a" d="M500.645,262.081l-4.894-1.9a.869.869,0,0,0-.315-.062.715.715,0,0,0-.712.765v3.455a.715.715,0,0,0,.712.765.87.87,0,0,0,.315-.062l4.894-1.9c.39-.152.448-.4.448-.53S501.035,262.232,500.645,262.081Z" transform="translate(-467.854 -245.99)"/><path class="a" d="M5.658,265.1a.715.715,0,0,0,.712-.765v-3.455a.715.715,0,0,0-.712-.765.87.87,0,0,0-.315.062l-4.894,1.9c-.39.151-.448.4-.448.53s.058.378.448.53l4.894,1.9A.87.87,0,0,0,5.658,265.1Z" transform="translate(0 -245.989)"/></svg>