<svg xmlns="http://www.w3.org/2000/svg" width="25.436" height="25.436" viewBox="0 0 25.436 25.436"><defs><style>.a{stroke:#000;stroke-width:0.5px;}</style></defs><g transform="translate(0.25 0.25)"><path class="a" d="M12.468,0A12.47,12.47,0,0,0,1.888,19.067C1.4,20.792.506,24.056.5,24.09a.48.48,0,0,0,.6.584l4.942-1.52A12.468,12.468,0,1,0,12.468,0Zm0,23.976a11.48,11.48,0,0,1-6.1-1.751.479.479,0,0,0-.255-.073.488.488,0,0,0-.141.021L1.652,23.5c.317-1.157.887-3.227,1.217-4.378a.481.481,0,0,0-.059-.394,11.51,11.51,0,1,1,9.657,5.246Z"/><path class="a" d="M25.473,20.493c-.885-.492-1.639-.984-2.189-1.344-.42-.274-.724-.472-.946-.584a1.089,1.089,0,0,0-1.273.09.48.48,0,0,0-.06.073,6.741,6.741,0,0,1-1.736,1.946,11.546,11.546,0,0,1-2.948-1.909,6.384,6.384,0,0,1-2.333-2.947c.869-.895,1.183-1.458,1.183-2.1a13.57,13.57,0,0,0-1.819-3.7c-.28-.279-.909-.323-1.872-.131a.484.484,0,0,0-.245.131c-.117.117-2.843,2.9-1.547,6.266,1.422,3.7,5.073,8,9.727,8.694A10.086,10.086,0,0,0,20.9,25.1a4.414,4.414,0,0,0,4.809-4.111A.478.478,0,0,0,25.473,20.493Zm-5.916,3.541c-4.922-.738-8.022-5.614-8.974-8.09-.945-2.455.8-4.644,1.235-5.139a3.617,3.617,0,0,1,.887-.061,17.222,17.222,0,0,1,1.507,2.975c0,.252-.082.6-1.058,1.579a.477.477,0,0,0-.141.339c0,2.511,5.3,5.994,6.234,5.994.816,0,1.879-1.371,2.485-2.264a.455.455,0,0,1,.178.056c.173.087.472.282.85.529.5.327,1.163.76,1.947,1.209C24.351,22.874,23.356,24.605,19.558,24.035Z" transform="translate(-4.861 -5.088)"/></g></svg>